# This file uses centimeters as units for non-parametric coordinates.

mtllib SOGA.mtl
g default
v -0.542102 0.813753 -0.223157
v -0.112119 0.813753 -0.223157
v -0.542102 6.813753 -0.223157
v -0.112119 6.813753 -0.223157
v -0.542102 6.813753 -0.571524
v -0.112119 6.813753 -0.571524
v -0.542102 0.813753 -0.571524
v -0.112119 0.813753 -0.571524
v 0.380000 0.596513 -0.278159
v -0.380000 0.596513 -0.278159
v -0.760000 0.000000 -0.000000
v -0.380000 -0.596513 0.278159
v 0.380000 -0.596513 0.278159
v 0.760000 0.000000 0.000000
v 0.440000 0.778539 -0.133706
v -0.440000 0.778539 -0.133706
v -0.880000 0.087840 0.188372
v -0.440000 -0.602860 0.510451
v 0.440000 -0.602860 0.510451
v 0.880000 0.087840 0.188373
v 0.560000 0.966911 -0.221545
v -0.560000 0.966912 -0.221545
v -1.120000 0.087840 0.188372
v -0.560000 -0.791232 0.598290
v 0.560000 -0.791232 0.598291
v 1.120000 0.087840 0.188373
v 0.620000 0.973258 -0.453838
v -0.620000 0.973258 -0.453838
v -1.240000 0.000000 -0.000000
v -0.620000 -0.973258 0.453838
v 0.620000 -0.973258 0.453838
v 1.240000 -0.000000 -0.000000
v 0.560000 0.791232 -0.598290
v -0.560000 0.791232 -0.598291
v -1.120000 -0.087839 -0.188373
v -0.560000 -0.966911 0.221545
v 0.560000 -0.966911 0.221545
v 1.120000 -0.087840 -0.188373
v 0.440000 0.602860 -0.510451
v -0.440000 0.602860 -0.510451
v -0.880000 -0.087839 -0.188373
v -0.440000 -0.778539 0.133706
v 0.440000 -0.778539 0.133706
v 0.880000 -0.087840 -0.188373
vt 0.375000 0.000000
vt 0.625000 0.000000
vt 0.375000 0.250000
vt 0.625000 0.250000
vt 0.375000 0.500000
vt 0.625000 0.500000
vt 0.375000 0.750000
vt 0.625000 0.750000
vt 0.375000 1.000000
vt 0.625000 1.000000
vt 0.875000 0.000000
vt 0.875000 0.250000
vt 0.125000 0.000000
vt 0.125000 0.250000
vt 0.166667 1.000000
vt 0.000000 1.000000
vt 0.000000 0.833333
vt 0.166667 0.833333
vt 0.333333 1.000000
vt 0.333333 0.833333
vt 0.500000 1.000000
vt 0.500000 0.833333
vt 0.666667 1.000000
vt 0.666667 0.833333
vt 0.833333 1.000000
vt 0.833333 0.833333
vt 1.000000 1.000000
vt 1.000000 0.833333
vt 0.000000 0.666667
vt 0.166667 0.666667
vt 0.333333 0.666667
vt 0.500000 0.666667
vt 0.666667 0.666667
vt 0.833333 0.666667
vt 1.000000 0.666667
vt 0.000000 0.500000
vt 0.166667 0.500000
vt 0.333333 0.500000
vt 0.500000 0.500000
vt 0.666667 0.500000
vt 0.833333 0.500000
vt 1.000000 0.500000
vt 0.000000 0.333333
vt 0.166667 0.333333
vt 0.333333 0.333333
vt 0.500000 0.333333
vt 0.666667 0.333333
vt 0.833333 0.333333
vt 1.000000 0.333333
vt 0.000000 0.166667
vt 0.166667 0.166667
vt 0.333333 0.166667
vt 0.500000 0.166667
vt 0.666667 0.166667
vt 0.833333 0.166667
vt 1.000000 0.166667
vt 0.000000 -0.000000
vt 0.166667 -0.000000
vt 0.333333 -0.000000
vt 0.500000 -0.000000
vt 0.666667 -0.000000
vt 0.833333 -0.000000
vt 1.000000 -0.000000
vn 0.000000 0.000000 1.000000
vn 0.000000 0.000000 1.000000
vn 0.000000 0.000000 1.000000
vn 0.000000 0.000000 1.000000
vn 0.000000 1.000000 0.000000
vn 0.000000 1.000000 0.000000
vn 0.000000 1.000000 0.000000
vn 0.000000 1.000000 0.000000
vn 0.000000 0.000000 -1.000000
vn 0.000000 0.000000 -1.000000
vn 0.000000 0.000000 -1.000000
vn 0.000000 0.000000 -1.000000
vn 0.000000 -1.000000 0.000000
vn 0.000000 -1.000000 0.000000
vn 0.000000 -1.000000 0.000000
vn 0.000000 -1.000000 0.000000
vn 1.000000 0.000000 0.000000
vn 1.000000 0.000000 0.000000
vn 1.000000 0.000000 0.000000
vn 1.000000 0.000000 0.000000
vn -1.000000 0.000000 0.000000
vn -1.000000 0.000000 0.000000
vn -1.000000 0.000000 0.000000
vn -1.000000 0.000000 0.000000
vn -0.000000 -0.621626 0.783314
vn -0.000000 -0.621626 0.783315
vn -0.000000 -0.621626 0.783314
vn -0.000000 -0.621626 0.783315
vn 0.774597 -0.216313 0.594314
vn 0.774597 -0.216313 0.594314
vn 0.774597 -0.216313 0.594314
vn 0.774597 -0.216313 0.594314
vn 0.774597 0.594314 0.216313
vn 0.774597 0.594314 0.216313
vn 0.774597 0.594314 0.216313
vn 0.774597 0.594314 0.216313
vn 0.000000 0.999627 0.027312
vn 0.000000 0.999627 0.027312
vn 0.000000 0.999627 0.027312
vn 0.000000 0.999627 0.027312
vn -0.774597 0.594314 0.216313
vn -0.774597 0.594314 0.216313
vn -0.774597 0.594314 0.216313
vn -0.774597 0.594314 0.216313
vn -0.774597 -0.216312 0.594314
vn -0.774597 -0.216312 0.594314
vn -0.774597 -0.216312 0.594314
vn -0.774597 -0.216312 0.594314
vn 0.000000 0.422618 0.906308
vn 0.000000 0.422618 0.906308
vn 0.000000 0.422618 0.906308
vn 0.000000 0.422618 0.906308
vn -0.000000 0.422618 0.906308
vn -0.000000 0.422618 0.906308
vn -0.000000 0.422618 0.906308
vn -0.000000 0.422618 0.906308
vn 0.000000 0.422618 0.906308
vn 0.000000 0.422618 0.906308
vn 0.000000 0.422618 0.906308
vn 0.000000 0.422618 0.906308
vn 0.000000 0.422618 0.906308
vn 0.000000 0.422618 0.906308
vn 0.000000 0.422618 0.906308
vn 0.000000 0.422618 0.906308
vn 0.000000 0.422618 0.906308
vn 0.000000 0.422618 0.906308
vn 0.000000 0.422618 0.906308
vn 0.000000 0.422618 0.906308
vn 0.000000 0.422618 0.906308
vn 0.000000 0.422618 0.906308
vn 0.000000 0.422618 0.906308
vn 0.000000 0.422618 0.906308
vn 0.000000 0.999627 0.027311
vn 0.000000 0.999627 0.027311
vn 0.000000 0.999627 0.027311
vn 0.000000 0.999627 0.027311
vn -0.774597 0.594314 0.216312
vn -0.774597 0.594314 0.216312
vn -0.774597 0.594314 0.216312
vn -0.774597 0.594314 0.216312
vn -0.774597 -0.216312 0.594314
vn -0.774597 -0.216312 0.594314
vn -0.774597 -0.216312 0.594314
vn -0.774597 -0.216312 0.594314
vn -0.000000 -0.621626 0.783314
vn -0.000000 -0.621626 0.783314
vn -0.000000 -0.621626 0.783314
vn -0.000000 -0.621626 0.783314
vn 0.774597 -0.216313 0.594314
vn 0.774597 -0.216313 0.594314
vn 0.774597 -0.216313 0.594314
vn 0.774597 -0.216313 0.594314
vn 0.774597 0.594314 0.216313
vn 0.774597 0.594314 0.216313
vn 0.774597 0.594314 0.216313
vn 0.774597 0.594314 0.216313
vn 0.000000 0.621626 -0.783314
vn 0.000000 0.621626 -0.783314
vn 0.000000 0.621626 -0.783314
vn 0.000000 0.621626 -0.783314
vn -0.774597 0.216313 -0.594314
vn -0.774597 0.216313 -0.594314
vn -0.774597 0.216313 -0.594314
vn -0.774597 0.216313 -0.594314
vn -0.774597 -0.594314 -0.216313
vn -0.774597 -0.594314 -0.216313
vn -0.774597 -0.594314 -0.216313
vn -0.774597 -0.594314 -0.216313
vn -0.000000 -0.999627 -0.027311
vn -0.000000 -0.999627 -0.027311
vn -0.000000 -0.999627 -0.027311
vn -0.000000 -0.999627 -0.027311
vn 0.774597 -0.594314 -0.216313
vn 0.774597 -0.594314 -0.216313
vn 0.774597 -0.594314 -0.216313
vn 0.774597 -0.594314 -0.216313
vn 0.774597 0.216312 -0.594314
vn 0.774597 0.216312 -0.594314
vn 0.774597 0.216312 -0.594314
vn 0.774597 0.216313 -0.594314
vn 0.000000 -0.422618 -0.906308
vn 0.000000 -0.422618 -0.906308
vn 0.000000 -0.422618 -0.906308
vn 0.000000 -0.422618 -0.906308
vn 0.000000 -0.422618 -0.906308
vn 0.000000 -0.422618 -0.906308
vn 0.000000 -0.422618 -0.906308
vn 0.000000 -0.422618 -0.906308
vn 0.000000 -0.422618 -0.906308
vn 0.000000 -0.422618 -0.906308
vn 0.000000 -0.422618 -0.906308
vn 0.000000 -0.422618 -0.906308
vn 0.000000 -0.422618 -0.906308
vn 0.000000 -0.422618 -0.906308
vn 0.000000 -0.422618 -0.906308
vn 0.000000 -0.422618 -0.906308
vn -0.000000 -0.422618 -0.906308
vn -0.000000 -0.422618 -0.906308
vn -0.000000 -0.422618 -0.906308
vn -0.000000 -0.422618 -0.906308
vn -0.000000 -0.422618 -0.906308
vn -0.000000 -0.422618 -0.906308
vn -0.000000 -0.422619 -0.906308
vn -0.000000 -0.422618 -0.906308
vn -0.000000 -0.999627 -0.027312
vn -0.000000 -0.999627 -0.027312
vn -0.000000 -0.999627 -0.027312
vn -0.000000 -0.999627 -0.027312
vn 0.774597 -0.594314 -0.216312
vn 0.774597 -0.594314 -0.216312
vn 0.774597 -0.594314 -0.216312
vn 0.774597 -0.594314 -0.216312
vn 0.774597 0.216313 -0.594314
vn 0.774597 0.216313 -0.594314
vn 0.774597 0.216313 -0.594314
vn 0.774597 0.216313 -0.594314
vn 0.000000 0.621626 -0.783314
vn 0.000000 0.621626 -0.783314
vn 0.000000 0.621626 -0.783314
vn 0.000000 0.621626 -0.783314
vn -0.774597 0.216312 -0.594314
vn -0.774597 0.216312 -0.594314
vn -0.774597 0.216312 -0.594314
vn -0.774597 0.216312 -0.594314
vn -0.774597 -0.594314 -0.216313
vn -0.774597 -0.594314 -0.216313
vn -0.774597 -0.594314 -0.216313
vn -0.774597 -0.594314 -0.216313
s off
g pCube121
usemtl initialShadingGroup
f 1/1/1 2/2/2 4/4/3 3/3/4
f 3/3/5 4/4/6 6/6/7 5/5/8
f 5/5/9 6/6/10 8/8/11 7/7/12
f 7/7/13 8/8/14 2/10/15 1/9/16
f 2/2/17 8/11/18 6/12/19 4/4/20
f 7/13/21 1/1/22 3/3/23 5/14/24
f 10/15/25 9/16/26 15/17/27 16/18/28
f 11/19/29 10/15/30 16/18/31 17/20/32
f 12/21/33 11/19/34 17/20/35 18/22/36
f 13/23/37 12/21/38 18/22/39 19/24/40
f 14/25/41 13/23/42 19/24/43 20/26/44
f 9/27/45 14/25/46 20/26/47 15/28/48
f 16/18/49 15/17/50 21/29/51 22/30/52
f 17/20/53 16/18/54 22/30/55 23/31/56
f 18/22/57 17/20/58 23/31/59 24/32/60
f 19/24/61 18/22/62 24/32/63 25/33/64
f 20/26/65 19/24/66 25/33/67 26/34/68
f 15/28/69 20/26/70 26/34/71 21/35/72
f 22/30/73 21/29/74 27/36/75 28/37/76
f 23/31/77 22/30/78 28/37/79 29/38/80
f 24/32/81 23/31/82 29/38/83 30/39/84
f 25/33/85 24/32/86 30/39/87 31/40/88
f 26/34/89 25/33/90 31/40/91 32/41/92
f 21/35/93 26/34/94 32/41/95 27/42/96
f 28/37/97 27/36/98 33/43/99 34/44/100
f 29/38/101 28/37/102 34/44/103 35/45/104
f 30/39/105 29/38/106 35/45/107 36/46/108
f 31/40/109 30/39/110 36/46/111 37/47/112
f 32/41/113 31/40/114 37/47/115 38/48/116
f 27/42/117 32/41/118 38/48/119 33/49/120
f 34/44/121 33/43/122 39/50/123 40/51/124
f 35/45/125 34/44/126 40/51/127 41/52/128
f 36/46/129 35/45/130 41/52/131 42/53/132
f 37/47/133 36/46/134 42/53/135 43/54/136
f 38/48/137 37/47/138 43/54/139 44/55/140
f 33/49/141 38/48/142 44/55/143 39/56/144
f 40/51/145 39/50/146 9/57/147 10/58/148
f 41/52/149 40/51/150 10/58/151 11/59/152
f 42/53/153 41/52/154 11/59/155 12/60/156
f 43/54/157 42/53/158 12/60/159 13/61/160
f 44/55/161 43/54/162 13/61/163 14/62/164
f 39/56/165 44/55/166 14/62/167 9/63/168
