# This file uses centimeters as units for non-parametric coordinates.

mtllib mazo2.mtl
g default
v -7.716360 -2.212677 0.752003
v -7.716360 -1.611133 1.503855
v -8.468212 -1.611133 0.752003
v -5.460502 -1.611133 0.752003
v -6.212354 -1.611133 1.503855
v -6.212354 -2.212677 0.752003
v -8.468212 1.830052 0.752003
v -7.716360 1.830052 1.503855
v -7.716360 2.431596 0.752003
v -6.212354 2.431596 0.752003
v -6.212354 1.830052 1.503855
v -5.460502 1.830052 0.752003
v -8.468212 1.830052 -0.752003
v -7.716360 2.431596 -0.752003
v -7.716360 1.830052 -1.503855
v -6.212354 1.830052 -1.503855
v -6.212354 2.431596 -0.752003
v -5.460502 1.830052 -0.752003
v -8.468212 -1.611133 -0.752003
v -7.716360 -1.611133 -1.503855
v -7.716360 -2.212677 -0.752003
v -6.212354 -2.212677 -0.752003
v -6.212354 -1.611133 -1.503855
v -5.460502 -1.611133 -0.752003
vt 0.437494 0.937506
vt 0.375000 0.937506
vt 0.375000 0.812494
vt 0.437494 0.000000
vt 0.437494 0.032381
vt 0.625000 0.937506
vt 0.562506 0.937506
vt 0.625000 0.812494
vt 0.687494 0.032381
vt 0.375000 0.312494
vt 0.375000 0.437506
vt 0.437494 0.217619
vt 0.562506 0.217619
vt 0.625000 0.312494
vt 0.375000 0.532381
vt 0.375000 0.717619
vt 0.437494 0.437506
vt 0.562506 0.437506
vt 0.625000 0.532381
vt 0.625000 0.717619
vt 0.437494 0.717619
vt 0.562506 0.717619
vt 0.562506 0.812494
vt 0.562506 0.032381
vt 0.437494 0.312494
vt 0.562506 0.312494
vt 0.437494 0.532381
vt 0.562506 0.532381
vt 0.437494 0.812494
vt 0.812506 0.032381
vt 0.812506 0.217619
vt 0.187494 0.032381
vt 0.312506 0.032381
vt 0.312506 0.217619
vt 0.187494 0.217619
vt 0.562506 0.000000
vt 0.687494 0.217619
vt 0.625000 0.437506
vn -0.624734 -0.780837 0.000000
vn -0.624734 -0.780837 0.000000
vn -0.624734 -0.780837 0.000000
vn -0.624734 -0.780837 0.000000
vn 0.000000 -0.780837 0.624734
vn 0.000000 -0.780837 0.624734
vn 0.000000 -0.780837 0.624734
vn 0.000000 -0.780837 0.624734
vn -0.707107 0.000000 0.707107
vn -0.707107 0.000000 0.707107
vn -0.707107 0.000000 0.707107
vn -0.707107 0.000000 0.707107
vn 0.624734 -0.780837 0.000000
vn 0.624734 -0.780837 0.000000
vn 0.624734 -0.780837 0.000000
vn 0.624734 -0.780837 0.000000
vn 0.707107 0.000000 0.707107
vn 0.707107 0.000000 0.707107
vn 0.707107 0.000000 0.707107
vn 0.707107 0.000000 0.707107
vn -0.624734 0.780837 0.000000
vn -0.624734 0.780837 0.000000
vn -0.624734 0.780837 0.000000
vn -0.624734 0.780837 0.000000
vn 0.000000 0.780837 0.624734
vn 0.000000 0.780837 0.624734
vn 0.000000 0.780837 0.624734
vn 0.000000 0.780837 0.624734
vn 0.624734 0.780837 0.000000
vn 0.624734 0.780837 0.000000
vn 0.624734 0.780837 0.000000
vn 0.624734 0.780837 0.000000
vn -0.707107 0.000000 -0.707107
vn -0.707107 0.000000 -0.707107
vn -0.707107 0.000000 -0.707107
vn -0.707107 0.000000 -0.707107
vn 0.000000 0.780837 -0.624734
vn 0.000000 0.780837 -0.624734
vn 0.000000 0.780837 -0.624734
vn 0.000000 0.780837 -0.624734
vn 0.707107 0.000000 -0.707107
vn 0.707107 0.000000 -0.707107
vn 0.707107 0.000000 -0.707107
vn 0.707107 0.000000 -0.707107
vn 0.000000 -0.780837 -0.624734
vn 0.000000 -0.780837 -0.624734
vn 0.000000 -0.780837 -0.624734
vn 0.000000 -0.780837 -0.624734
vn 0.000000 0.000000 1.000000
vn 0.000000 0.000000 1.000000
vn 0.000000 0.000000 1.000000
vn 0.000000 0.000000 1.000000
vn 0.000000 1.000000 0.000000
vn 0.000000 1.000000 0.000000
vn 0.000000 1.000000 0.000000
vn 0.000000 1.000000 0.000000
vn 0.000000 0.000000 -1.000000
vn 0.000000 0.000000 -1.000000
vn 0.000000 0.000000 -1.000000
vn 0.000000 0.000000 -1.000000
vn 0.000000 -1.000000 0.000000
vn 0.000000 -1.000000 0.000000
vn 0.000000 -1.000000 0.000000
vn 0.000000 -1.000000 0.000000
vn 1.000000 0.000000 0.000000
vn 1.000000 0.000000 0.000000
vn 1.000000 0.000000 0.000000
vn 1.000000 0.000000 0.000000
vn -1.000000 0.000000 0.000000
vn -1.000000 0.000000 0.000000
vn -1.000000 0.000000 0.000000
vn -1.000000 0.000000 0.000000
vn -0.529837 -0.662228 0.529837
vn -0.529837 -0.662228 0.529837
vn -0.529837 -0.662228 0.529837
vn 0.529837 -0.662228 0.529837
vn 0.529837 -0.662228 0.529837
vn 0.529837 -0.662228 0.529837
vn -0.529837 0.662228 0.529837
vn -0.529837 0.662228 0.529837
vn -0.529837 0.662228 0.529837
vn 0.529837 0.662228 0.529837
vn 0.529837 0.662228 0.529837
vn 0.529837 0.662228 0.529837
vn -0.529837 0.662228 -0.529837
vn -0.529837 0.662228 -0.529837
vn -0.529837 0.662228 -0.529837
vn 0.529837 0.662228 -0.529837
vn 0.529837 0.662228 -0.529837
vn 0.529837 0.662228 -0.529837
vn -0.529837 -0.662228 -0.529837
vn -0.529837 -0.662228 -0.529837
vn -0.529837 -0.662228 -0.529837
vn 0.529837 -0.662228 -0.529837
vn 0.529837 -0.662228 -0.529837
vn 0.529837 -0.662228 -0.529837
s off
g pCube1
usemtl initialShadingGroup
f 1/1/1 3/2/2 19/3/3 21/29/4
f 2/5/5 1/4/6 6/36/7 5/24/8
f 3/33/9 2/5/10 8/12/11 7/34/12
f 4/6/13 6/7/14 22/23/15 24/8/16
f 5/24/17 4/9/18 12/37/19 11/13/20
f 7/10/21 9/25/22 14/17/23 13/11/24
f 9/25/25 8/12/26 11/13/27 10/26/28
f 10/26/29 12/14/30 18/38/31 17/18/32
f 13/15/33 15/27/34 20/21/35 19/16/36
f 15/27/37 14/17/38 17/18/39 16/28/40
f 16/28/41 18/19/42 24/20/43 23/22/44
f 21/29/45 20/21/46 23/22/47 22/23/48
f 2/5/49 5/24/50 11/13/51 8/12/52
f 9/25/53 10/26/54 17/18/55 14/17/56
f 15/27/57 16/28/58 23/22/59 20/21/60
f 21/29/61 22/23/62 6/7/63 1/1/64
f 4/9/65 24/30/66 18/31/67 12/37/68
f 19/32/69 3/33/70 7/34/71 13/35/72
f 1/4/73 2/5/74 3/33/75
f 4/9/76 5/24/77 6/36/78
f 7/34/79 8/12/80 9/25/81
f 10/26/82 11/13/83 12/37/84
f 13/11/85 14/17/86 15/27/87
f 16/28/88 17/18/89 18/38/90
f 19/16/91 20/21/92 21/29/93
f 22/23/94 23/22/95 24/20/96
g default
v -5.462313 -0.549277 0.439752
v -5.462313 -0.274666 0.879416
v -5.676353 -0.274666 0.439752
v 6.675483 -0.274666 0.439752
v 6.461443 -0.274666 0.879416
v 6.461443 -0.549277 0.439752
v -5.676353 0.274666 0.439752
v -5.462313 0.274666 0.879416
v -5.462313 0.549277 0.439752
v 6.461443 0.549277 0.439752
v 6.461443 0.274666 0.879416
v 6.675483 0.274666 0.439752
v -5.676353 0.274666 -0.439752
v -5.462313 0.549277 -0.439752
v -5.462313 0.274666 -0.879416
v 6.461443 0.274666 -0.879416
v 6.461443 0.549277 -0.439752
v 6.675483 0.274666 -0.439752
v -5.676353 -0.274666 -0.439752
v -5.462313 -0.274666 -0.879416
v -5.462313 -0.549277 -0.439752
v 6.461443 -0.549277 -0.439752
v 6.461443 -0.274666 -0.879416
v 6.675483 -0.274666 -0.439752
vt 0.379332 0.937506
vt 0.375000 0.937506
vt 0.375000 0.812494
vt 0.379332 0.000000
vt 0.379332 0.062494
vt 0.625000 0.937506
vt 0.620668 0.937506
vt 0.625000 0.812494
vt 0.687494 0.062494
vt 0.375000 0.312494
vt 0.375000 0.437506
vt 0.379332 0.187506
vt 0.620668 0.187506
vt 0.625000 0.312494
vt 0.375000 0.562494
vt 0.375000 0.687506
vt 0.379332 0.437506
vt 0.620668 0.437506
vt 0.625000 0.562494
vt 0.625000 0.687506
vt 0.379332 0.687506
vt 0.620668 0.687506
vt 0.620668 0.812494
vt 0.620668 0.062494
vt 0.379332 0.312494
vt 0.620668 0.312494
vt 0.379332 0.562494
vt 0.620668 0.562494
vt 0.379332 0.812494
vt 0.812506 0.062494
vt 0.812506 0.187506
vt 0.187494 0.062494
vt 0.312506 0.062494
vt 0.312506 0.187506
vt 0.187494 0.187506
vt 0.620668 0.000000
vt 0.687494 0.187506
vt 0.625000 0.437506
vn -0.788721 -0.614751 0.000000
vn -0.788721 -0.614751 0.000000
vn -0.788721 -0.614751 0.000000
vn -0.788721 -0.614751 0.000000
vn 0.000000 -0.848153 0.529751
vn 0.000000 -0.848153 0.529751
vn 0.000000 -0.848153 0.529751
vn 0.000000 -0.848153 0.529751
vn -0.899115 0.000000 0.437712
vn -0.899115 0.000000 0.437712
vn -0.899115 0.000000 0.437712
vn -0.899115 0.000000 0.437712
vn 0.788720 -0.614752 0.000000
vn 0.788720 -0.614752 0.000000
vn 0.788720 -0.614752 0.000000
vn 0.788720 -0.614752 0.000000
vn 0.899115 0.000000 0.437713
vn 0.899115 0.000000 0.437713
vn 0.899115 0.000000 0.437713
vn 0.899115 0.000000 0.437713
vn -0.788721 0.614751 0.000000
vn -0.788721 0.614751 0.000000
vn -0.788721 0.614751 0.000000
vn -0.788721 0.614751 0.000000
vn 0.000000 0.848153 0.529751
vn 0.000000 0.848153 0.529751
vn 0.000000 0.848153 0.529751
vn 0.000000 0.848153 0.529751
vn 0.788720 0.614752 0.000000
vn 0.788720 0.614752 0.000000
vn 0.788720 0.614752 0.000000
vn 0.788720 0.614752 0.000000
vn -0.899115 0.000000 -0.437712
vn -0.899115 0.000000 -0.437712
vn -0.899115 0.000000 -0.437712
vn -0.899115 0.000000 -0.437712
vn 0.000000 0.848153 -0.529751
vn 0.000000 0.848153 -0.529751
vn 0.000000 0.848153 -0.529751
vn 0.000000 0.848153 -0.529751
vn 0.899115 0.000000 -0.437713
vn 0.899115 0.000000 -0.437713
vn 0.899115 0.000000 -0.437713
vn 0.899115 0.000000 -0.437713
vn 0.000000 -0.848153 -0.529751
vn 0.000000 -0.848153 -0.529751
vn 0.000000 -0.848153 -0.529751
vn 0.000000 -0.848153 -0.529751
vn 0.000000 0.000000 1.000000
vn 0.000000 0.000000 1.000000
vn 0.000000 0.000000 1.000000
vn 0.000000 0.000000 1.000000
vn 0.000000 1.000000 0.000000
vn 0.000000 1.000000 0.000000
vn 0.000000 1.000000 0.000000
vn 0.000000 1.000000 0.000000
vn 0.000000 0.000000 -1.000000
vn 0.000000 0.000000 -1.000000
vn 0.000000 0.000000 -1.000000
vn 0.000000 0.000000 -1.000000
vn 0.000000 -1.000000 0.000000
vn 0.000000 -1.000000 0.000000
vn 0.000000 -1.000000 0.000000
vn 0.000000 -1.000000 0.000000
vn 1.000000 0.000000 0.000000
vn 1.000000 0.000000 0.000000
vn 1.000000 0.000000 0.000000
vn 1.000000 0.000000 0.000000
vn -1.000000 0.000000 0.000000
vn -1.000000 0.000000 0.000000
vn -1.000000 0.000000 0.000000
vn -1.000000 0.000000 0.000000
vn -0.736308 -0.573900 0.358454
vn -0.736308 -0.573900 0.358454
vn -0.736308 -0.573900 0.358454
vn 0.736307 -0.573901 0.358454
vn 0.736307 -0.573901 0.358454
vn 0.736307 -0.573901 0.358454
vn -0.736308 0.573900 0.358454
vn -0.736308 0.573900 0.358454
vn -0.736308 0.573900 0.358454
vn 0.736307 0.573901 0.358454
vn 0.736307 0.573901 0.358454
vn 0.736307 0.573901 0.358454
vn -0.736308 0.573900 -0.358454
vn -0.736308 0.573900 -0.358454
vn -0.736308 0.573900 -0.358454
vn 0.736307 0.573901 -0.358454
vn 0.736307 0.573901 -0.358454
vn 0.736307 0.573901 -0.358454
vn -0.736308 -0.573900 -0.358454
vn -0.736308 -0.573900 -0.358454
vn -0.736308 -0.573900 -0.358454
vn 0.736307 -0.573901 -0.358454
vn 0.736307 -0.573901 -0.358454
vn 0.736307 -0.573901 -0.358454
s off
g pCube3
usemtl initialShadingGroup
f 25/39/97 27/40/98 43/41/99 45/67/100
f 26/43/101 25/42/102 30/74/103 29/62/104
f 27/71/105 26/43/106 32/50/107 31/72/108
f 28/44/109 30/45/110 46/61/111 48/46/112
f 29/62/113 28/47/114 36/75/115 35/51/116
f 31/48/117 33/63/118 38/55/119 37/49/120
f 33/63/121 32/50/122 35/51/123 34/64/124
f 34/64/125 36/52/126 42/76/127 41/56/128
f 37/53/129 39/65/130 44/59/131 43/54/132
f 39/65/133 38/55/134 41/56/135 40/66/136
f 40/66/137 42/57/138 48/58/139 47/60/140
f 45/67/141 44/59/142 47/60/143 46/61/144
f 26/43/145 29/62/146 35/51/147 32/50/148
f 33/63/149 34/64/150 41/56/151 38/55/152
f 39/65/153 40/66/154 47/60/155 44/59/156
f 45/67/157 46/61/158 30/45/159 25/39/160
f 28/47/161 48/68/162 42/69/163 36/75/164
f 43/70/165 27/71/166 31/72/167 37/73/168
f 25/42/169 26/43/170 27/71/171
f 28/47/172 29/62/173 30/74/174
f 31/72/175 32/50/176 33/63/177
f 34/64/178 35/51/179 36/75/180
f 37/49/181 38/55/182 39/65/183
f 40/66/184 41/56/185 42/76/186
f 43/54/187 44/59/188 45/67/189
f 46/61/190 47/60/191 48/58/192
