# This file uses centimeters as units for non-parametric coordinates.

mtllib can.mtl
g default
v 10.940920 2.166641 7.765315
v 10.803854 2.166641 7.631164
v 10.616616 2.166641 7.582061
v 10.429379 2.166641 7.631164
v 10.292313 2.166641 7.765315
v 10.242143 2.166641 7.948568
v 10.292313 2.166641 8.131823
v 10.429379 2.166641 8.265973
v 10.616616 2.166641 8.315075
v 10.803854 2.166641 8.265973
v 10.940920 2.166641 8.131823
v 10.991091 2.166641 7.948568
v 10.616616 2.166641 7.948568
v 10.912036 3.341313 7.784667
v 10.787235 3.341313 7.664568
v 10.616616 3.341313 7.620567
v 10.445998 3.341313 7.664568
v 10.321197 3.341313 7.784667
v 10.275554 3.341313 7.948568
v 10.321197 3.341313 8.112469
v 10.445998 3.341313 8.232568
v 10.616616 3.341313 8.276569
v 10.787235 3.341313 8.232568
v 10.912036 3.341313 8.112469
v 10.957680 3.341313 7.948568
v 10.912036 2.261086 7.784667
v 10.787235 2.261086 7.664569
v 10.616616 2.261086 7.948568
v 10.616616 2.261086 7.620567
v 10.445998 2.261086 7.664569
v 10.321197 2.261086 7.784667
v 10.275554 2.261086 7.948568
v 10.321197 2.261086 8.112469
v 10.445998 2.261086 8.232568
v 10.616616 2.261086 8.276569
v 10.787235 2.261086 8.232568
v 10.912036 2.261086 8.112469
v 10.957680 2.261086 7.948568
v 10.940920 3.322733 7.765315
v 10.926534 3.341313 7.773777
v 10.803854 3.322733 7.631164
v 10.795636 3.341313 7.645665
v 10.616616 3.322733 7.582061
v 10.616616 3.341313 7.598717
v 10.429379 3.322733 7.631164
v 10.437596 3.341313 7.645665
v 10.292313 3.322733 7.765315
v 10.306700 3.341313 7.773777
v 10.242143 3.322733 7.948568
v 10.258846 3.341313 7.948568
v 10.292313 3.322733 8.131823
v 10.306700 3.341313 8.123360
v 10.429379 3.322733 8.265973
v 10.437596 3.341313 8.251472
v 10.616616 3.322733 8.315075
v 10.616616 3.341313 8.298420
v 10.803854 3.322733 8.265973
v 10.795636 3.341313 8.251472
v 10.940920 3.322733 8.131823
v 10.926534 3.341313 8.123360
v 10.991091 3.322733 7.948568
v 10.974387 3.341313 7.948568
vt 0.559933 0.479107
vt 0.562159 0.442714
vt 0.628957 0.465114
vt 0.576216 0.511755
vt 0.606668 0.531887
vt 0.643129 0.534087
vt 0.675836 0.517768
vt 0.696110 0.487320
vt 0.697647 0.450855
vt 0.681510 0.418293
vt 0.651171 0.398238
vt 0.614843 0.396055
vt 0.582264 0.412325
vt 0.949486 0.767602
vt 0.916251 0.787464
vt 0.894724 0.716178
vt 0.877227 0.788221
vt 0.842897 0.769648
vt 0.822475 0.736754
vt 0.821406 0.698371
vt 0.839962 0.664755
vt 0.873197 0.644892
vt 0.912222 0.644136
vt 0.946552 0.662708
vt 0.966973 0.695603
vt 0.968042 0.733985
vt 0.493222 0.947814
vt 0.454517 0.948467
vt 0.451974 0.796252
vt 0.490636 0.795557
vt 0.919200 0.939782
vt 0.880175 0.940542
vt 0.841147 0.941303
vt 0.838204 0.788979
vt 0.802430 0.942055
vt 0.799496 0.789731
vt 0.764031 0.942799
vt 0.761109 0.790475
vt 0.725628 0.943539
vt 0.722725 0.791216
vt 0.686899 0.944279
vt 0.684023 0.791957
vt 0.647852 0.945014
vt 0.645011 0.792697
vt 0.608797 0.945741
vt 0.606005 0.793428
vt 0.570048 0.946449
vt 0.567321 0.794144
vt 0.531633 0.947142
vt 0.528972 0.794849
vt 0.842466 0.273591
vt 0.846229 0.274654
vt 0.844663 0.310054
vt 0.840961 0.309920
vt 0.968107 0.526385
vt 0.971789 0.527583
vt 0.953737 0.559446
vt 0.950982 0.556677
vt 0.922001 0.578236
vt 0.920935 0.574475
vt 0.885059 0.578709
vt 0.885964 0.574908
vt 0.853060 0.560794
vt 0.855585 0.557854
vt 0.836864 0.563461
vt 0.833030 0.564276
vt 0.833949 0.527887
vt 0.837737 0.527899
vt 0.834581 0.491683
vt 0.838177 0.492748
vt 0.834495 0.491540
vt 0.852436 0.459962
vt 0.855183 0.462739
vt 0.884019 0.441246
vt 0.885071 0.445011
vt 0.920732 0.440864
vt 0.919823 0.444663
vt 0.952614 0.458801
vt 0.950092 0.461739
vt 0.843677 0.345476
vt 0.839846 0.346264
vt 0.703919 0.268549
vt 0.705269 0.232123
vt 0.843779 0.237179
vt 0.706618 0.195701
vt 0.845095 0.200766
vt 0.707966 0.159285
vt 0.846430 0.164361
vt 0.693175 0.596718
vt 0.694207 0.560269
vt 0.831947 0.600720
vt 0.695175 0.523813
vt 0.835937 0.455354
vt 0.698804 0.414374
vt 0.837246 0.419003
vt 0.700029 0.377908
vt 0.838543 0.382639
vt 0.701293 0.341454
vt 0.702581 0.305008
vt 0.948482 0.553612
vt 0.964916 0.525102
vt 0.919790 0.570435
vt 0.886494 0.570986
vt 0.857642 0.555093
vt 0.840860 0.527041
vt 0.841245 0.494135
vt 0.857673 0.465815
vt 0.886202 0.449055
vt 0.919285 0.448583
vt 0.948029 0.464494
vt 0.967768 0.491649
vt 0.964743 0.492496
vn 0.000000 -1.000000 0.000000
vn 0.000000 -1.000000 0.000000
vn 0.000000 -1.000000 0.000000
vn 0.000000 -1.000000 0.000000
vn 0.000000 -1.000000 0.000000
vn 0.000000 -1.000000 0.000000
vn 0.000000 -1.000000 0.000000
vn 0.000000 -1.000000 0.000000
vn 0.000000 -1.000000 0.000000
vn 0.000000 -1.000000 0.000001
vn 0.000000 -1.000000 0.000000
vn 0.000000 -1.000000 0.000000
vn 0.000000 -1.000000 0.000000
vn 0.000000 -1.000000 0.000001
vn 0.000000 -1.000000 0.000000
vn 0.000000 -1.000000 0.000000
vn 0.000000 -1.000000 0.000000
vn 0.000000 -1.000000 0.000000
vn 0.000000 -1.000000 0.000000
vn 0.000000 -1.000000 0.000000
vn 0.000000 -1.000000 0.000000
vn 0.000000 -1.000000 0.000000
vn 0.000000 -1.000000 0.000000
vn 0.000000 -1.000000 0.000000
vn 0.000000 -1.000000 0.000000
vn 0.000000 -1.000000 0.000000
vn 0.000000 -1.000000 0.000000
vn 0.000000 -1.000000 0.000000
vn 0.000000 -1.000000 0.000000
vn 0.000000 -1.000000 0.000000
vn 0.000000 -1.000000 0.000000
vn 0.000000 -1.000000 0.000000
vn 0.000000 -1.000000 0.000000
vn 0.000000 -1.000000 0.000000
vn 0.000000 -1.000000 0.000000
vn 0.000000 -1.000000 0.000000
vn 0.000000 1.000000 -0.000001
vn 0.000001 1.000000 0.000001
vn 0.000000 1.000000 0.000000
vn 0.000001 1.000000 0.000001
vn 0.000001 1.000000 0.000000
vn 0.000000 1.000000 0.000000
vn 0.000001 1.000000 0.000000
vn -0.000001 1.000000 0.000001
vn 0.000000 1.000000 0.000000
vn -0.000001 1.000000 0.000001
vn -0.000001 1.000000 -0.000001
vn 0.000000 1.000000 0.000000
vn -0.000001 1.000000 -0.000001
vn 0.000000 1.000000 -0.000002
vn 0.000000 1.000000 0.000000
vn 0.000000 1.000000 -0.000002
vn 0.000000 1.000000 0.000002
vn 0.000000 1.000000 0.000000
vn 0.000000 1.000000 0.000002
vn 0.000000 1.000000 0.000002
vn 0.000000 1.000000 0.000000
vn 0.000000 1.000000 0.000002
vn -0.000001 1.000000 0.000000
vn 0.000000 1.000000 0.000000
vn -0.000001 1.000000 0.000000
vn 0.000001 1.000000 -0.000001
vn 0.000000 1.000000 0.000000
vn 0.000001 1.000000 -0.000001
vn 0.000001 1.000000 0.000001
vn 0.000000 1.000000 0.000000
vn 0.000001 1.000000 0.000001
vn 0.000000 1.000000 0.000000
vn 0.000000 1.000000 0.000000
vn 0.000000 1.000000 0.000000
vn 0.000000 1.000000 -0.000001
vn 0.000000 1.000000 0.000000
vn -0.693403 0.000001 0.720550
vn -0.485595 0.000000 0.874184
vn -0.485595 0.000000 0.874184
vn -0.693403 0.000001 0.720550
vn -0.485595 0.000000 0.874184
vn 0.000000 0.000000 1.000000
vn 0.000000 0.000000 1.000000
vn -0.485595 0.000000 0.874184
vn 0.000000 0.000000 1.000000
vn 0.485595 0.000000 0.874184
vn 0.485595 0.000000 0.874184
vn 0.000000 0.000000 1.000000
vn 0.485595 0.000000 0.874184
vn 0.693400 -0.000000 0.720553
vn 0.693400 -0.000000 0.720553
vn 0.485595 0.000000 0.874184
vn 0.963344 0.000000 0.268271
vn 0.963344 0.000000 0.268271
vn 0.963344 0.000000 0.268271
vn 0.963344 0.000000 0.268271
vn 0.963344 0.000000 -0.268271
vn 0.963344 0.000000 -0.268271
vn 0.963344 0.000000 -0.268271
vn 0.963344 0.000000 -0.268271
vn 0.693403 0.000000 -0.720550
vn 0.485595 0.000000 -0.874184
vn 0.485595 0.000000 -0.874184
vn 0.693403 0.000000 -0.720550
vn 0.485595 0.000000 -0.874184
vn 0.000000 0.000000 -1.000000
vn 0.000000 0.000000 -1.000000
vn 0.485595 0.000000 -0.874184
vn 0.000000 0.000000 -1.000000
vn -0.485595 0.000000 -0.874184
vn -0.485595 0.000000 -0.874184
vn 0.000000 0.000000 -1.000000
vn -0.485595 0.000000 -0.874184
vn -0.693406 0.000000 -0.720547
vn -0.693406 0.000000 -0.720547
vn -0.485595 0.000000 -0.874184
vn -0.963342 0.000000 -0.268277
vn -0.963342 0.000000 -0.268277
vn -0.963342 0.000000 -0.268277
vn -0.963342 0.000000 -0.268277
vn -0.963342 0.000000 0.268276
vn -0.963342 0.000000 0.268276
vn -0.963342 0.000000 0.268276
vn -0.963342 0.000000 0.268276
vn 0.640711 0.668270 -0.378027
vn 0.640712 0.668270 -0.378026
vn 0.743670 0.668547 0.000000
vn 0.743670 0.668547 0.000000
vn 0.640712 0.668270 -0.378026
vn 0.640711 0.668270 -0.378027
vn 0.366161 0.667742 -0.648111
vn 0.366157 0.667742 -0.648113
vn 0.366157 0.667742 -0.648113
vn 0.366161 0.667742 -0.648111
vn -0.000001 0.667485 -0.744623
vn -0.000001 0.667485 -0.744623
vn -0.000001 0.667485 -0.744623
vn -0.000001 0.667485 -0.744623
vn -0.366156 0.667750 -0.648105
vn -0.366159 0.667750 -0.648104
vn -0.366159 0.667750 -0.648104
vn -0.366156 0.667750 -0.648105
vn -0.640696 0.668292 -0.378013
vn -0.640695 0.668292 -0.378016
vn -0.640695 0.668292 -0.378016
vn -0.640696 0.668292 -0.378013
vn -0.743643 0.668576 0.000001
vn -0.743644 0.668576 0.000001
vn -0.743644 0.668576 0.000001
vn -0.743643 0.668576 0.000001
vn -0.640689 0.668298 0.378015
vn -0.640691 0.668298 0.378011
vn -0.640691 0.668298 0.378011
vn -0.640689 0.668298 0.378015
vn -0.366156 0.667747 0.648108
vn -0.366159 0.667746 0.648107
vn -0.366159 0.667746 0.648107
vn -0.366156 0.667747 0.648108
vn 0.000001 0.667475 0.744633
vn 0.000001 0.667475 0.744633
vn 0.000001 0.667475 0.744633
vn 0.000001 0.667475 0.744633
vn 0.366166 0.667727 0.648122
vn 0.366162 0.667727 0.648125
vn 0.366162 0.667727 0.648125
vn 0.366166 0.667727 0.648122
vn 0.640708 0.668269 0.378034
vn 0.640714 0.668269 0.378026
vn 0.640714 0.668269 0.378026
vn 0.640708 0.668269 0.378034
vn 0.743670 0.668547 0.000000
vn 0.743670 0.668547 0.000000
vn 0.699468 0.000000 -0.714664
vn 0.491960 0.000000 -0.870618
vn 0.491960 0.000000 -0.870618
vn 0.699468 0.000000 -0.714664
vn 0.491960 0.000000 -0.870618
vn 0.000000 0.000000 -1.000000
vn 0.000000 0.000000 -1.000000
vn 0.491960 0.000000 -0.870618
vn 0.000000 0.000000 -1.000000
vn -0.491960 0.000000 -0.870618
vn -0.491960 0.000000 -0.870618
vn 0.000000 0.000000 -1.000000
vn -0.491960 0.000000 -0.870618
vn -0.699465 0.000000 -0.714667
vn -0.699465 0.000000 -0.714667
vn -0.491960 0.000000 -0.870618
vn -0.964507 0.000000 -0.264057
vn -0.964507 0.000000 -0.264057
vn -0.964507 0.000000 -0.264057
vn -0.964507 0.000000 -0.264057
vn -0.964507 0.000000 0.264056
vn -0.964507 0.000000 0.264056
vn -0.964507 0.000000 0.264056
vn -0.964507 0.000000 0.264056
vn -0.699463 0.000000 0.714669
vn -0.491957 0.000000 0.870620
vn -0.491957 0.000000 0.870620
vn -0.699463 0.000000 0.714669
vn -0.491957 0.000000 0.870620
vn 0.000000 0.000000 1.000000
vn 0.000000 0.000000 1.000000
vn -0.491957 0.000000 0.870620
vn 0.000000 0.000000 1.000000
vn 0.491957 0.000000 0.870620
vn 0.491957 0.000000 0.870620
vn 0.000000 0.000000 1.000000
vn 0.491957 0.000000 0.870620
vn 0.699465 0.000000 0.714666
vn 0.699465 0.000000 0.714666
vn 0.491957 0.000000 0.870620
vn 0.964506 0.000000 0.264060
vn 0.964506 0.000000 0.264060
vn 0.964506 0.000000 0.264060
vn 0.964506 0.000000 0.264060
vn 0.964506 0.000000 -0.264061
vn 0.964506 0.000000 -0.264061
vn 0.964506 0.000000 -0.264061
vn 0.964506 0.000000 -0.264061
vn 0.000000 1.000000 0.000001
vn 0.000000 1.000000 0.000002
vn 0.000000 1.000000 0.000002
vn 0.000000 1.000000 0.000000
vn 0.000000 1.000000 0.000002
vn 0.000000 1.000000 0.000008
vn 0.000000 1.000000 0.000008
vn 0.000000 1.000000 0.000002
vn 0.000000 1.000000 0.000008
vn 0.000000 1.000000 0.000009
vn 0.000000 1.000000 0.000008
vn 0.000000 1.000000 0.000008
vn 0.000000 1.000000 0.000009
vn 0.000000 1.000000 -0.000002
vn 0.000000 1.000000 -0.000002
vn 0.000000 1.000000 0.000008
vn 0.000000 1.000000 -0.000002
vn 0.000000 1.000000 0.000000
vn 0.000000 1.000000 0.000000
vn 0.000000 1.000000 -0.000002
vn 0.000000 1.000000 0.000000
vn 0.000000 1.000000 0.000000
vn 0.000000 1.000000 0.000000
vn 0.000000 1.000000 0.000000
vn 0.000000 1.000000 0.000000
vn 0.000000 1.000000 -0.000006
vn 0.000000 1.000000 -0.000006
vn 0.000000 1.000000 0.000000
vn 0.000000 1.000000 -0.000006
vn 0.000000 1.000000 -0.000004
vn 0.000000 1.000000 -0.000004
vn 0.000000 1.000000 -0.000006
vn 0.000000 1.000000 -0.000004
vn 0.000000 1.000000 0.000000
vn 0.000000 1.000000 0.000000
vn 0.000000 1.000000 -0.000004
vn 0.000000 1.000000 0.000000
vn 0.000000 1.000000 0.000002
vn 0.000000 1.000000 0.000002
vn 0.000000 1.000000 0.000000
vn 0.000000 1.000000 0.000002
vn 0.000000 1.000000 0.000001
vn 0.000000 1.000000 0.000001
vn 0.000000 1.000000 0.000002
vn 0.000000 1.000000 0.000001
vn 0.000000 1.000000 0.000001
vn 0.000000 1.000000 0.000000
vn 0.000000 1.000000 0.000001
s off
g Can
usemtl initialShadingGroup
f 2/1/1 1/2/2 13/3/3
f 3/4/4 2/1/5 13/3/6
f 4/5/7 3/4/8 13/3/9
f 5/6/10 4/5/11 13/3/12
f 6/7/13 5/6/14 13/3/15
f 7/8/16 6/7/17 13/3/18
f 8/9/19 7/8/20 13/3/21
f 9/10/22 8/9/23 13/3/24
f 10/11/25 9/10/26 13/3/27
f 11/12/28 10/11/29 13/3/30
f 12/13/31 11/12/32 13/3/33
f 1/2/34 12/13/35 13/3/36
f 26/14/37 27/15/38 28/16/39
f 27/15/40 29/17/41 28/16/42
f 29/17/43 30/18/44 28/16/45
f 30/18/46 31/19/47 28/16/48
f 31/19/49 32/20/50 28/16/51
f 32/20/52 33/21/53 28/16/54
f 33/21/55 34/22/56 28/16/57
f 34/22/58 35/23/59 28/16/60
f 35/23/61 36/24/62 28/16/63
f 36/24/64 37/25/65 28/16/66
f 37/25/67 38/26/68 28/16/69
f 38/26/70 26/14/71 28/16/72
f 14/27/73 15/28/74 27/29/75 26/30/76
f 15/31/77 16/32/78 29/17/79 27/15/80
f 16/32/81 17/33/82 30/34/83 29/17/84
f 17/33/85 18/35/86 31/36/87 30/34/88
f 18/35/89 19/37/90 32/38/91 31/36/92
f 19/37/93 20/39/94 33/40/95 32/38/96
f 20/39/97 21/41/98 34/42/99 33/40/100
f 21/41/101 22/43/102 35/44/103 34/42/104
f 22/43/105 23/45/106 36/46/107 35/44/108
f 23/45/109 24/47/110 37/48/111 36/46/112
f 24/47/113 25/49/114 38/50/115 37/48/116
f 25/49/117 14/27/118 26/30/119 38/50/120
f 39/51/121 40/52/122 62/53/123 61/54/124
f 40/55/125 39/56/126 41/57/127 42/58/128
f 42/58/129 41/57/130 43/59/131 44/60/132
f 44/60/133 43/59/134 45/61/135 46/62/136
f 46/62/137 45/61/138 47/63/139 48/64/140
f 48/65/141 47/66/142 49/67/143 50/68/144
f 50/68/145 49/67/146 51/69/147 52/70/148
f 52/70/149 51/71/150 53/72/151 54/73/152
f 54/73/153 53/72/154 55/74/155 56/75/156
f 56/75/157 55/74/158 57/76/159 58/77/160
f 58/77/161 57/76/162 59/78/163 60/79/164
f 60/80/165 59/81/166 61/54/167 62/53/168
f 1/82/169 2/83/170 41/84/171 39/51/172
f 2/83/173 3/85/174 43/86/175 41/84/176
f 3/85/177 4/87/178 45/88/179 43/86/180
f 4/89/181 5/90/182 47/66/183 45/91/184
f 5/90/185 6/92/186 49/67/187 47/66/188
f 6/92/189 7/8/190 51/69/191 49/67/192
f 7/8/193 8/9/194 53/93/195 51/69/196
f 8/9/197 9/94/198 55/95/199 53/93/200
f 9/94/201 10/96/202 57/97/203 55/95/204
f 10/96/205 11/98/206 59/81/207 57/97/208
f 11/98/209 12/99/210 61/54/211 59/81/212
f 12/99/213 1/82/214 39/51/215 61/54/216
f 40/55/217 42/58/218 15/100/219 14/101/220
f 42/58/221 44/60/222 16/102/223 15/100/224
f 44/60/225 46/62/226 17/103/227 16/102/228
f 46/62/229 48/64/230 18/104/231 17/103/232
f 48/64/233 50/68/234 19/105/235 18/104/236
f 50/68/237 52/70/238 20/106/239 19/105/240
f 52/70/241 54/73/242 21/107/243 20/106/244
f 54/73/245 56/75/246 22/108/247 21/107/248
f 56/75/249 58/77/250 23/109/251 22/108/252
f 58/77/253 60/79/254 24/110/255 23/109/256
f 60/79/257 62/111/258 25/112/259 24/110/260
f 62/111/261 40/55/262 14/101/263 25/112/264
