# This file uses centimeters as units for non-parametric coordinates.

mtllib FENCE.mtl
g default
v -93.278572 2.200000 25.907188
v -92.278572 2.200000 25.907188
v -93.278572 7.200000 25.907188
v -92.278572 7.200000 25.907188
v -93.278572 7.200000 24.907188
v -92.278572 7.200000 24.907188
v -93.278572 2.200000 24.907188
v -92.278572 2.200000 24.907188
v -93.278572 6.634910 25.907188
v -92.278572 6.634910 25.907188
v -92.278572 6.634910 24.907188
v -93.278572 6.634910 24.907188
v -86.278572 2.200000 25.907188
v -85.278572 2.200000 25.907188
v -86.278572 7.200000 25.907188
v -85.278572 7.200000 25.907188
v -86.278572 7.200000 24.907188
v -85.278572 7.200000 24.907188
v -86.278572 2.200000 24.907188
v -85.278572 2.200000 24.907188
v -86.278572 6.634910 25.907188
v -85.278572 6.634910 25.907188
v -85.278572 6.634910 24.907188
v -86.278572 6.634910 24.907188
v -92.492645 6.103476 25.781836
v -92.712143 5.599737 25.781836
v -86.002937 3.275712 25.781836
v -86.222435 2.771972 25.781836
v -86.002937 3.275712 25.032541
v -86.222435 2.771972 25.032541
v -92.492645 6.103476 25.032541
v -92.712143 5.599737 25.032541
v -85.901749 5.577518 25.781836
v -86.117905 6.082699 25.781836
v -92.410019 2.792749 25.781836
v -92.626183 3.297930 25.781836
v -92.410019 2.792749 25.032541
v -92.626183 3.297930 25.032541
v -85.901749 5.577518 25.032541
v -86.117905 6.082699 25.032541
v -92.778572 7.781128 25.407188
v -85.778572 7.781128 25.407188
vt 0.375000 0.221746
vt 0.625000 0.221746
vt 0.625000 0.250000
vt 0.375000 0.250000
vt 0.625000 0.500000
vt 0.375000 0.500000
vt 0.625000 0.528255
vt 0.375000 0.528255
vt 0.375000 0.750000
vt 0.625000 0.750000
vt 0.625000 1.000000
vt 0.375000 1.000000
vt 0.375000 0.000000
vt 0.625000 0.000000
vt 0.875000 0.000000
vt 0.875000 0.221746
vt 0.125000 0.000000
vt 0.125000 0.221746
vt 0.375000 0.221746
vt 0.625000 0.221746
vt 0.625000 0.250000
vt 0.375000 0.250000
vt 0.625000 0.500000
vt 0.375000 0.500000
vt 0.625000 0.528255
vt 0.375000 0.528255
vt 0.375000 0.750000
vt 0.625000 0.750000
vt 0.625000 1.000000
vt 0.375000 1.000000
vt 0.875000 0.221746
vt 0.875000 0.250000
vt 0.375000 0.000000
vt 0.625000 0.000000
vt 0.875000 0.000000
vt 0.125000 0.000000
vt 0.125000 0.221746
vt 0.375000 0.000000
vt 0.625000 0.000000
vt 0.625000 0.250000
vt 0.375000 0.250000
vt 0.625000 0.500000
vt 0.375000 0.500000
vt 0.625000 0.750000
vt 0.375000 0.750000
vt 0.625000 1.000000
vt 0.375000 1.000000
vt 0.875000 0.000000
vt 0.875000 0.250000
vt 0.125000 0.000000
vt 0.125000 0.250000
vt 0.375000 0.000000
vt 0.625000 0.000000
vt 0.625000 0.250000
vt 0.375000 0.250000
vt 0.625000 0.500000
vt 0.375000 0.500000
vt 0.625000 0.750000
vt 0.375000 0.750000
vt 0.625000 1.000000
vt 0.375000 1.000000
vt 0.875000 0.000000
vt 0.875000 0.250000
vt 0.125000 0.000000
vt 0.125000 0.250000
vt 0.500000 0.375000
vt 0.500000 0.375000
vn 0.000000 0.000000 1.000000
vn 0.000000 0.000000 1.000000
vn 0.000000 0.000000 1.000000
vn 0.000000 0.000000 1.000000
vn 0.000000 0.000000 -1.000000
vn 0.000000 0.000000 -1.000000
vn 0.000000 0.000000 -1.000000
vn 0.000000 0.000000 -1.000000
vn 0.000000 -1.000000 0.000000
vn 0.000000 -1.000000 0.000000
vn 0.000000 -1.000000 0.000000
vn 0.000000 -1.000000 0.000000
vn 0.000000 0.000000 1.000000
vn 0.000000 0.000000 1.000000
vn 0.000000 0.000000 1.000000
vn 0.000000 0.000000 1.000000
vn 1.000000 0.000000 0.000000
vn 1.000000 0.000000 0.000000
vn 1.000000 0.000000 0.000000
vn 1.000000 0.000000 0.000000
vn 0.000000 0.000000 -1.000000
vn 0.000000 0.000000 -1.000000
vn 0.000000 0.000000 -1.000000
vn 0.000000 0.000000 -1.000000
vn -1.000000 0.000000 0.000000
vn -1.000000 0.000000 0.000000
vn -1.000000 0.000000 0.000000
vn -1.000000 0.000000 0.000000
vn 0.000000 0.000000 1.000000
vn 0.000000 0.000000 1.000000
vn 0.000000 0.000000 1.000000
vn 0.000000 0.000000 1.000000
vn 0.000000 0.000000 -1.000000
vn 0.000000 0.000000 -1.000000
vn 0.000000 0.000000 -1.000000
vn 0.000000 0.000000 -1.000000
vn 0.000000 -1.000000 0.000000
vn 0.000000 -1.000000 0.000000
vn 0.000000 -1.000000 0.000000
vn 0.000000 -1.000000 0.000000
vn 1.000000 0.000000 0.000000
vn 1.000000 0.000000 0.000000
vn 1.000000 0.000000 0.000000
vn 1.000000 0.000000 0.000000
vn 0.000000 0.000000 1.000000
vn 0.000000 0.000000 1.000000
vn 0.000000 0.000000 1.000000
vn 0.000000 0.000000 1.000000
vn 1.000000 0.000000 0.000000
vn 1.000000 0.000000 0.000000
vn 1.000000 0.000000 0.000000
vn 1.000000 0.000000 0.000000
vn 0.000000 0.000000 -1.000000
vn 0.000000 0.000000 -1.000000
vn 0.000000 0.000000 -1.000000
vn 0.000000 0.000000 -1.000000
vn -1.000000 0.000000 0.000000
vn -1.000000 0.000000 0.000000
vn -1.000000 0.000000 0.000000
vn -1.000000 0.000000 0.000000
vn 0.000000 1.000000 0.000000
vn 0.000000 1.000000 0.000000
vn 0.000000 1.000000 0.000000
vn 0.000000 1.000000 0.000000
vn 0.000000 0.000000 1.000000
vn 0.000000 0.000000 1.000000
vn 0.000000 0.000000 1.000000
vn 0.000000 0.000000 1.000000
vn 0.000000 -1.000000 0.000000
vn 0.000000 -1.000000 0.000000
vn 0.000000 -1.000000 0.000000
vn 0.000000 -1.000000 0.000000
vn 0.000000 0.000000 -1.000000
vn 0.000000 0.000000 -1.000000
vn 0.000000 0.000000 -1.000000
vn 0.000000 0.000000 -1.000000
vn -1.000000 0.000000 0.000000
vn -1.000000 0.000000 0.000000
vn -1.000000 0.000000 0.000000
vn -1.000000 0.000000 0.000000
vn 0.000000 0.000000 1.000000
vn 0.000000 0.000000 1.000000
vn 0.000000 0.000000 1.000000
vn 0.000000 0.000000 1.000000
vn 0.916745 -0.399474 0.000000
vn 0.916745 -0.399474 0.000000
vn 0.916745 -0.399474 0.000000
vn 0.916745 -0.399474 0.000000
vn 0.000000 0.000000 -1.000000
vn 0.000000 0.000000 -1.000000
vn 0.000000 0.000000 -1.000000
vn 0.000000 0.000000 -1.000000
vn -0.916745 0.399474 0.000000
vn -0.916745 0.399474 0.000000
vn -0.916745 0.399474 0.000000
vn -0.916745 0.399474 0.000000
vn -0.399457 -0.916752 0.000000
vn -0.399457 -0.916752 0.000000
vn -0.399457 -0.916752 0.000000
vn -0.399457 -0.916752 0.000000
vn 0.399457 0.916752 0.000000
vn 0.399457 0.916752 0.000000
vn 0.399457 0.916752 0.000000
vn 0.399457 0.916752 0.000000
vn 0.000000 0.000000 1.000000
vn 0.000000 0.000000 1.000000
vn 0.000000 0.000000 1.000000
vn 0.000000 0.000000 1.000000
vn -0.919375 -0.393382 0.000000
vn -0.919375 -0.393382 0.000000
vn -0.919375 -0.393382 0.000000
vn -0.919375 -0.393382 0.000000
vn 0.000000 0.000000 -1.000000
vn 0.000000 0.000000 -1.000000
vn 0.000000 0.000000 -1.000000
vn 0.000000 0.000000 -1.000000
vn 0.919375 0.393381 0.000000
vn 0.919375 0.393381 0.000000
vn 0.919375 0.393381 0.000000
vn 0.919375 0.393381 0.000000
vn -0.393383 0.919375 0.000000
vn -0.393383 0.919375 0.000000
vn -0.393383 0.919375 0.000000
vn -0.393383 0.919375 0.000000
vn 0.393383 -0.919375 0.000000
vn 0.393383 -0.919375 0.000000
vn 0.393383 -0.919375 0.000000
vn 0.393383 -0.919375 0.000000
vn 0.000000 0.652211 0.758038
vn 0.000000 0.652211 0.758038
vn 0.000000 0.652211 0.758038
vn 0.758038 0.652211 0.000000
vn 0.758038 0.652211 0.000000
vn 0.758038 0.652211 0.000000
vn 0.000000 0.652211 -0.758038
vn 0.000000 0.652211 -0.758038
vn 0.000000 0.652211 -0.758038
vn -0.758038 0.652211 0.000000
vn -0.758038 0.652211 0.000000
vn -0.758038 0.652211 0.000000
vn 0.000000 0.652211 0.758038
vn 0.000000 0.652211 0.758038
vn 0.000000 0.652211 0.758038
vn 0.758038 0.652211 0.000000
vn 0.758038 0.652211 0.000000
vn 0.758038 0.652211 0.000000
vn 0.000000 0.652211 -0.758038
vn 0.000000 0.652211 -0.758038
vn 0.000000 0.652211 -0.758038
vn -0.758038 0.652211 0.000000
vn -0.758038 0.652211 0.000000
vn -0.758038 0.652211 0.000000
s off
g polySurface78
usemtl initialShadingGroup
f 9/1/1 10/2/2 4/3/3 3/4/4
f 5/6/5 6/5/6 11/7/7 12/8/8
f 7/9/9 8/10/10 2/11/11 1/12/12
f 1/13/13 2/14/14 10/2/15 9/1/16
f 2/14/17 8/15/18 11/16/19 10/2/20
f 12/8/21 11/7/22 8/10/23 7/9/24
f 7/17/25 1/13/26 9/1/27 12/18/28
f 21/19/29 22/20/30 16/21/31 15/22/32
f 17/24/33 18/23/34 23/25/35 24/26/36
f 19/27/37 20/28/38 14/29/39 13/30/40
f 22/20/41 23/31/42 18/32/43 16/21/44
f 13/33/45 14/34/46 22/20/47 21/19/48
f 14/34/49 20/35/50 23/31/51 22/20/52
f 24/26/53 23/25/54 20/28/55 19/27/56
f 19/36/57 13/33/58 21/19/59 24/37/60
f 6/5/61 4/3/62 15/22/63 17/24/64
f 4/3/65 10/2/66 21/19/67 15/22/68
f 10/2/69 11/16/70 24/37/71 21/19/72
f 11/7/73 6/5/74 17/24/75 24/26/76
f 5/6/77 12/18/78 9/1/79 3/4/80
f 25/38/81 26/39/82 28/40/83 27/41/84
f 27/41/85 28/40/86 30/42/87 29/43/88
f 29/43/89 30/42/90 32/44/91 31/45/92
f 31/45/93 32/44/94 26/46/95 25/47/96
f 26/39/97 32/48/98 30/49/99 28/40/100
f 31/50/101 25/38/102 27/41/103 29/51/104
f 33/52/105 34/53/106 36/54/107 35/55/108
f 35/55/109 36/54/110 38/56/111 37/57/112
f 37/57/113 38/56/114 40/58/115 39/59/116
f 39/59/117 40/58/118 34/60/119 33/61/120
f 34/53/121 40/62/122 38/63/123 36/54/124
f 39/64/125 33/52/126 35/55/127 37/65/128
f 3/4/129 4/3/130 41/66/131
f 4/3/132 6/5/133 41/66/134
f 6/5/135 5/6/136 41/66/137
f 5/6/138 3/4/139 41/66/140
f 15/22/141 16/21/142 42/67/143
f 16/21/144 18/23/145 42/67/146
f 18/23/147 17/24/148 42/67/149
f 17/24/150 15/22/151 42/67/152
