# This file uses centimeters as units for non-parametric coordinates.

mtllib GANCHO.mtl
g default
v 1.455372 2.408807 1.811227
v 0.331115 2.408806 1.812128
v -0.238855 2.385009 1.812128
v -0.507082 2.657958 1.812128
v -0.489704 3.108531 1.812128
v 1.455372 2.267853 1.457673
v 0.331116 2.267853 1.458575
v -0.296076 2.250204 1.458575
v -0.642864 2.603098 1.458575
v -0.636039 3.102818 1.458575
v 1.455372 1.927562 1.311227
v 0.331117 1.927562 1.312128
v -0.434221 1.924756 1.312128
v -0.970673 2.470654 1.312128
v -0.989323 3.089025 1.312128
v 1.455373 1.587272 1.457673
v 0.331118 1.587272 1.458575
v -0.572365 1.599309 1.458575
v -1.298482 2.338211 1.458575
v -1.342607 3.075231 1.458575
v 1.455373 1.446318 1.811227
v 0.331119 1.446319 1.812128
v -0.629586 1.464504 1.812128
v -1.434265 2.283351 1.812128
v -1.488942 3.069518 1.812128
v 1.455373 1.587272 2.164780
v 0.331118 1.587272 2.165681
v -0.572365 1.599309 2.165681
v -1.298482 2.338211 2.165681
v -1.342607 3.075231 2.165681
v 1.455372 1.927562 2.311227
v 0.331117 1.927562 2.312128
v -0.434221 1.924756 2.312128
v -0.970673 2.470654 2.312128
v -0.989323 3.089025 2.312128
v 1.455372 2.267853 2.164780
v 0.331116 2.267853 2.165681
v -0.296076 2.250204 2.165681
v -0.642864 2.603098 2.165681
v -0.636039 3.102818 2.165681
v -0.989323 3.728690 1.812128
v -1.309150 2.516401 2.165681
v -1.434825 2.291393 1.812128
v -1.309150 2.516401 1.458575
v 1.455372 1.927562 1.811227
vt 0.125000 1.000000
vt 0.250000 1.000000
vt 0.375000 1.000000
vt 0.500000 1.000000
vt 0.625000 1.000000
vt 0.125000 0.875000
vt 0.250000 0.875000
vt 0.375000 0.875000
vt 0.500000 0.875000
vt 0.625000 0.875000
vt 0.125000 0.750000
vt 0.250000 0.750000
vt 0.375000 0.750000
vt 0.500000 0.750000
vt 0.625000 0.750000
vt 0.125000 0.625000
vt 0.250000 0.625000
vt 0.375000 0.625000
vt 0.500000 0.625000
vt 0.625000 0.625000
vt 0.125000 0.500000
vt 0.250000 0.500000
vt 0.375000 0.500000
vt 0.500000 0.500000
vt 0.625000 0.500000
vt 0.125000 0.375000
vt 0.250000 0.375000
vt 0.375000 0.375000
vt 0.500000 0.375000
vt 0.625000 0.375000
vt 0.125000 0.250000
vt 0.250000 0.250000
vt 0.375000 0.250000
vt 0.500000 0.250000
vt 0.625000 0.250000
vt 0.125000 0.125000
vt 0.250000 0.125000
vt 0.375000 0.125000
vt 0.500000 0.125000
vt 0.625000 0.125000
vt 0.125000 0.000000
vt 0.250000 0.000000
vt 0.375000 0.000000
vt 0.500000 0.000000
vt 0.625000 0.000000
vt 0.625000 0.750000
vt 0.530221 0.375000
vt 0.501279 0.500000
vt 0.530221 0.625000
vt 0.125000 0.250000
vn -0.000297 0.928900 -0.370330
vn -0.000297 0.928900 -0.370330
vn -0.000297 0.928900 -0.370330
vn -0.000297 0.928900 -0.370330
vn -0.032268 0.932057 -0.360872
vn -0.032268 0.932057 -0.360872
vn -0.032268 0.932057 -0.360872
vn -0.032268 0.932057 -0.360872
vn 0.666139 0.654614 -0.357407
vn 0.666139 0.654614 -0.357407
vn 0.666139 0.654614 -0.357407
vn 0.666139 0.654614 -0.357407
vn 0.929241 -0.023667 -0.368717
vn 0.929241 -0.023667 -0.368717
vn 0.929241 -0.023667 -0.368717
vn 0.929241 -0.023667 -0.368717
vn -0.000736 0.395305 -0.918550
vn -0.000736 0.395304 -0.918550
vn -0.000736 0.395305 -0.918550
vn -0.000736 0.395304 -0.918550
vn -0.005930 0.403726 -0.914861
vn -0.005930 0.403726 -0.914861
vn -0.005930 0.403726 -0.914861
vn -0.005930 0.403726 -0.914861
vn 0.291795 0.286746 -0.912487
vn 0.291795 0.286746 -0.912487
vn 0.291795 0.286746 -0.912487
vn 0.291795 0.286746 -0.912487
vn 0.394295 0.004170 -0.918974
vn 0.394295 0.004170 -0.918974
vn 0.394295 0.004170 -0.918974
vn 0.394295 0.004170 -0.918974
vn -0.000736 -0.395305 -0.918550
vn -0.000736 -0.395305 -0.918550
vn -0.000736 -0.395305 -0.918550
vn -0.000736 -0.395305 -0.918550
vn -0.002225 -0.402314 -0.915499
vn -0.002225 -0.402314 -0.915499
vn -0.002225 -0.402314 -0.915499
vn -0.002225 -0.402314 -0.915499
vn -0.291795 -0.286746 -0.912487
vn -0.291795 -0.286746 -0.912487
vn -0.291795 -0.286746 -0.912487
vn -0.291795 -0.286746 -0.912487
vn -0.391699 -0.018142 -0.919914
vn -0.391699 -0.018142 -0.919915
vn -0.391699 -0.018142 -0.919914
vn -0.391699 -0.018142 -0.919915
vn -0.391699 -0.018142 -0.919914
vn -0.000297 -0.928900 -0.370331
vn -0.000297 -0.928900 -0.370331
vn -0.000297 -0.928900 -0.370331
vn -0.000297 -0.928900 -0.370331
vn -0.015096 -0.931140 -0.364348
vn -0.015096 -0.931140 -0.364348
vn -0.015096 -0.931140 -0.364348
vn -0.015096 -0.931140 -0.364348
vn -0.666139 -0.654613 -0.357407
vn -0.666139 -0.654613 -0.357407
vn -0.666139 -0.654613 -0.357407
vn -0.666139 -0.654613 -0.357407
vn -0.925350 -0.060023 -0.374334
vn -0.925350 -0.060023 -0.374334
vn -0.925350 -0.060023 -0.374334
vn -0.925350 -0.060023 -0.374334
vn -0.925349 -0.060023 -0.374334
vn -0.925350 -0.060023 -0.374334
vn 0.000297 -0.928900 0.370331
vn 0.000297 -0.928900 0.370331
vn 0.000297 -0.928900 0.370331
vn 0.000297 -0.928900 0.370331
vn -0.015096 -0.931140 0.364348
vn -0.015096 -0.931140 0.364348
vn -0.015096 -0.931140 0.364348
vn -0.015096 -0.931140 0.364348
vn -0.666139 -0.654613 0.357407
vn -0.666139 -0.654613 0.357407
vn -0.666139 -0.654613 0.357407
vn -0.666139 -0.654613 0.357407
vn -0.925350 -0.060023 0.374333
vn -0.925350 -0.060023 0.374333
vn -0.925350 -0.060023 0.374333
vn -0.925350 -0.060023 0.374333
vn -0.925350 -0.060023 0.374333
vn -0.925350 -0.060023 0.374334
vn 0.000736 -0.395304 0.918550
vn 0.000736 -0.395304 0.918550
vn 0.000736 -0.395304 0.918550
vn 0.000736 -0.395304 0.918550
vn -0.002225 -0.402314 0.915499
vn -0.002225 -0.402314 0.915499
vn -0.002225 -0.402314 0.915499
vn -0.002225 -0.402314 0.915499
vn -0.291795 -0.286746 0.912487
vn -0.291795 -0.286746 0.912487
vn -0.291795 -0.286746 0.912487
vn -0.291795 -0.286746 0.912487
vn -0.391698 -0.018142 0.919915
vn -0.391699 -0.018142 0.919915
vn -0.391698 -0.018142 0.919915
vn -0.391698 -0.018142 0.919915
vn -0.391699 -0.018142 0.919915
vn 0.000736 0.395304 0.918550
vn 0.000736 0.395304 0.918550
vn 0.000736 0.395304 0.918550
vn 0.000736 0.395304 0.918550
vn -0.005930 0.403726 0.914861
vn -0.005930 0.403726 0.914861
vn -0.005930 0.403726 0.914861
vn -0.005930 0.403726 0.914861
vn 0.291795 0.286746 0.912487
vn 0.291795 0.286746 0.912487
vn 0.291795 0.286746 0.912487
vn 0.291795 0.286746 0.912487
vn 0.394294 0.004170 0.918975
vn 0.394294 0.004170 0.918975
vn 0.394294 0.004170 0.918975
vn 0.394294 0.004170 0.918975
vn 0.000296 0.928900 0.370330
vn 0.000296 0.928900 0.370330
vn 0.000296 0.928900 0.370330
vn 0.000296 0.928900 0.370330
vn -0.032268 0.932057 0.360872
vn -0.032268 0.932057 0.360872
vn -0.032268 0.932057 0.360872
vn -0.032268 0.932057 0.360872
vn 0.666139 0.654614 0.357407
vn 0.666139 0.654614 0.357407
vn 0.666139 0.654614 0.357407
vn 0.666139 0.654614 0.357407
vn 0.929241 -0.023667 0.368717
vn 0.929241 -0.023667 0.368717
vn 0.929241 -0.023667 0.368717
vn 0.929241 -0.023667 0.368717
vn 1.000000 0.000001 -0.000000
vn 1.000000 0.000001 -0.000000
vn 1.000000 0.000001 -0.000000
vn -0.759012 0.575293 -0.304857
vn -0.759012 0.575293 -0.304857
vn -0.759012 0.575293 -0.304857
vn -0.759012 0.575293 0.304857
vn -0.759012 0.575293 0.304857
vn -0.759012 0.575293 0.304857
vn 0.738959 0.595328 0.315474
vn 0.738959 0.595328 0.315474
vn 0.738959 0.595328 0.315474
vn -0.330887 0.581154 -0.743487
vn -0.330887 0.581154 -0.743487
vn -0.330887 0.581154 -0.743487
vn -0.330887 0.581154 0.743487
vn -0.330887 0.581154 0.743487
vn -0.330887 0.581154 0.743487
vn 0.738959 0.595328 -0.315474
vn 0.738959 0.595328 -0.315474
vn 0.738959 0.595328 -0.315474
vn 0.289585 0.589457 0.754110
vn 0.289585 0.589457 0.754110
vn 0.289585 0.589457 0.754110
vn 0.289586 0.589457 -0.754109
vn 0.289586 0.589457 -0.754110
vn 0.289586 0.589457 -0.754110
vn 1.000000 0.000001 0.000000
vn 1.000000 0.000001 0.000000
vn 1.000000 0.000001 0.000000
vn 1.000000 0.000001 0.000000
vn 1.000000 0.000001 0.000000
vn 1.000000 0.000001 0.000000
vn 1.000000 0.000001 0.000000
vn 1.000000 0.000001 0.000000
vn 1.000000 0.000001 0.000000
vn 1.000000 0.000001 0.000000
vn 1.000000 0.000001 0.000000
vn 1.000000 0.000001 0.000000
vn 1.000000 0.000001 0.000000
vn 1.000000 0.000001 0.000000
vn 1.000000 0.000001 0.000000
vn 1.000000 0.000001 0.000000
vn 1.000000 0.000001 0.000000
vn 1.000000 0.000001 0.000000
vn 1.000000 0.000001 -0.000000
vn 1.000000 0.000001 -0.000000
vn 1.000000 0.000001 -0.000000
s off
g pTorus1
usemtl initialShadingGroup
f 2/2/1 1/1/2 6/6/3 7/7/4
f 3/3/5 2/2/6 7/7/7 8/8/8
f 4/4/9 3/3/10 8/8/11 9/9/12
f 5/5/13 4/4/14 9/9/15 10/10/16
f 7/7/17 6/6/18 11/11/19 12/12/20
f 8/8/21 7/7/22 12/12/23 13/13/24
f 9/9/25 8/8/26 13/13/27 14/14/28
f 10/10/29 9/9/30 14/14/31 15/15/32
f 12/12/33 11/11/34 16/16/35 17/17/36
f 13/13/37 12/12/38 17/17/39 18/18/40
f 14/14/41 13/13/42 18/18/43 19/19/44
f 15/15/45 14/14/46 19/19/47 44/49/48 20/20/49
f 17/17/50 16/16/51 21/21/52 22/22/53
f 18/18/54 17/17/55 22/22/56 23/23/57
f 19/19/58 18/18/59 23/23/60 24/24/61
f 44/49/62 19/19/63 24/24/64 43/48/65 25/25/66 20/20/67
f 22/22/68 21/21/69 26/26/70 27/27/71
f 23/23/72 22/22/73 27/27/74 28/28/75
f 24/24/76 23/23/77 28/28/78 29/29/79
f 43/48/80 24/24/81 29/29/82 42/47/83 30/30/84 25/25/85
f 27/27/86 26/26/87 31/31/88 32/32/89
f 28/28/90 27/27/91 32/32/92 33/33/93
f 29/29/94 28/28/95 33/33/96 34/34/97
f 42/47/98 29/29/99 34/34/100 35/35/101 30/30/102
f 32/32/103 31/31/104 36/36/105 37/37/106
f 33/33/107 32/32/108 37/37/109 38/38/110
f 34/34/111 33/33/112 38/38/113 39/39/114
f 35/35/115 34/34/116 39/39/117 40/40/118
f 37/37/119 36/36/120 1/41/121 2/42/122
f 38/38/123 37/37/124 2/42/125 3/43/126
f 39/39/127 38/38/128 3/43/129 4/44/130
f 40/40/131 39/39/132 4/44/133 5/45/134
f 6/6/135 1/41/136 45/50/137
f 41/46/138 20/20/139 25/25/140
f 30/30/141 41/46/142 25/25/143
f 5/5/144 41/46/145 40/40/146
f 41/46/147 15/15/148 20/20/149
f 35/35/150 41/46/151 30/30/152
f 10/10/153 41/46/154 5/5/155
f 40/40/156 41/46/157 35/35/158
f 10/10/159 15/15/160 41/46/161
f 36/36/162 45/50/163 1/41/164
f 26/26/165 45/50/166 31/31/167
f 11/11/168 45/50/169 16/16/170
f 21/21/171 45/50/172 26/26/173
f 6/6/174 45/50/175 11/11/176
f 31/31/177 45/50/178 36/36/179
f 16/16/180 45/50/181 21/21/182
