# This file uses centimeters as units for non-parametric coordinates.

mtllib 1BLOCK.mtl
g default
v -0.500000 -0.500000 0.500000
v 0.500000 -0.500000 0.500000
v -0.500000 -0.500000 -0.500000
v 0.500000 -0.500000 -0.500000
v -0.399515 0.500000 0.399515
v 0.399515 0.500000 0.399515
v 0.399515 0.500000 -0.399515
v -0.399515 0.500000 -0.399515
v -0.399515 0.779167 0.399515
v -0.361451 0.817231 0.361451
v 0.361451 0.817231 0.361451
v 0.399515 0.779167 0.399515
v 0.361451 0.817231 -0.361451
v 0.399515 0.779167 -0.399515
v -0.361451 0.817231 -0.361451
v -0.399515 0.779167 -0.399515
v -0.500000 0.465003 0.500000
v -0.465003 0.500000 0.465003
v 0.500000 0.465003 0.500000
v 0.465003 0.500000 0.465003
v -0.500000 0.465003 -0.500000
v -0.465003 0.500000 -0.465003
v 0.500000 0.465003 -0.500000
v 0.465003 0.500000 -0.465003
vt 0.625000 0.750000
vt 0.375000 1.000000
vt 0.625000 1.000000
vt 0.386909 0.488091
vt 0.386909 0.261909
vt 0.613091 0.261909
vt 0.613091 0.488091
vt 0.375000 0.250000
vt 0.625000 0.250000
vt 0.625000 0.500000
vt 0.375000 0.500000
vt 0.133749 0.250000
vt 0.633749 0.250000
vt 0.875000 0.241251
vt 0.866251 0.250000
vt 0.375000 0.508749
vt 0.625000 0.000000
vt 0.375000 0.241251
vt 0.625000 0.508749
vt 0.375000 0.750000
vt 0.875000 0.000000
vt 0.625000 0.241251
vt 0.125000 0.000000
vt 0.375000 0.000000
vt 0.125000 0.241251
vt 0.625000 0.250000
vt 0.375000 0.250000
vt 0.625000 0.500000
vt 0.625000 0.250000
vt 0.375000 0.500000
vt 0.625000 0.500000
vt 0.375000 0.250000
vt 0.375000 0.500000
vn 0.000000 -1.000000 0.000000
vn 0.000000 -1.000000 0.000000
vn 0.000000 -1.000000 0.000000
vn 0.000000 -1.000000 0.000000
vn -0.707106 0.707107 0.000000
vn -0.707106 0.707107 0.000000
vn -0.707106 0.707107 0.000000
vn -0.707106 0.707107 0.000000
vn 0.000000 0.707108 0.707106
vn 0.000000 0.707108 0.707106
vn 0.000000 0.707108 0.707106
vn 0.000000 0.707108 0.707106
vn 0.707106 0.707107 0.000000
vn 0.707106 0.707107 0.000000
vn 0.707106 0.707107 0.000000
vn 0.707106 0.707107 0.000000
vn 0.000000 0.707108 -0.707106
vn 0.000000 0.707108 -0.707106
vn 0.000000 0.707108 -0.707106
vn 0.000000 0.707108 -0.707106
vn 0.000000 1.000000 0.000000
vn 0.000000 1.000000 0.000000
vn 0.000000 1.000000 0.000000
vn 0.000000 1.000000 0.000000
vn 0.000000 0.000000 1.000000
vn 0.000000 0.000000 1.000000
vn 0.000000 0.000000 1.000000
vn 0.000000 0.000000 1.000000
vn 1.000000 0.000000 0.000000
vn 1.000000 0.000000 0.000000
vn 1.000000 0.000000 0.000000
vn 1.000000 0.000000 0.000000
vn 0.000000 0.000000 -1.000000
vn 0.000000 0.000000 -1.000000
vn 0.000000 0.000000 -1.000000
vn 0.000000 0.000000 -1.000000
vn -1.000000 0.000000 0.000000
vn -1.000000 0.000000 0.000000
vn -1.000000 0.000000 0.000000
vn -1.000000 0.000000 0.000000
vn -0.707107 0.707107 0.000000
vn -0.707107 0.707107 0.000000
vn -0.707107 0.707107 0.000000
vn -0.707107 0.707107 0.000000
vn 0.000000 0.707107 0.707107
vn 0.000000 0.707107 0.707107
vn 0.000000 0.707107 0.707107
vn 0.000000 0.707107 0.707107
vn 0.707107 0.707107 0.000000
vn 0.707107 0.707107 0.000000
vn 0.707107 0.707107 0.000000
vn 0.707107 0.707107 0.000000
vn 0.000000 0.707107 -0.707107
vn 0.000000 0.707107 -0.707107
vn 0.000000 0.707107 -0.707107
vn 0.000000 0.707107 -0.707107
vn 0.000000 0.000000 1.000000
vn 0.000000 0.000000 1.000000
vn 0.000000 0.000000 1.000000
vn 0.000000 0.000000 1.000000
vn 0.000000 0.000000 -1.000000
vn 0.000000 0.000000 -1.000000
vn 0.000000 0.000000 -1.000000
vn 0.000000 0.000000 -1.000000
vn 1.000000 0.000000 0.000000
vn 1.000000 0.000000 0.000000
vn 1.000000 0.000000 0.000000
vn 1.000000 0.000000 0.000000
vn -1.000000 0.000000 0.000000
vn -1.000000 0.000000 0.000000
vn -1.000000 0.000000 0.000000
vn -1.000000 0.000000 0.000000
vn 0.000000 1.000000 -0.000000
vn -0.000000 1.000000 -0.000000
vn -0.000000 1.000000 -0.000000
vn 0.000000 1.000000 -0.000000
vn -0.000000 1.000000 0.000000
vn -0.000000 1.000000 0.000000
vn 0.000000 1.000000 0.000000
vn 0.000000 1.000000 0.000000
s off
g pCube139
usemtl initialShadingGroup
f 3/20/1 4/1/2 2/3/3 1/2/4
f 9/8/5 10/5/6 15/4/7 16/11/8
f 10/5/9 9/8/10 12/9/11 11/6/12
f 11/6/13 12/9/14 14/10/15 13/7/16
f 13/7/17 14/10/18 16/11/19 15/4/20
f 10/5/21 11/6/22 13/7/23 15/4/24
f 5/27/25 6/29/26 12/9/27 9/8/28
f 6/29/29 7/31/30 14/10/31 12/9/32
f 7/31/33 8/33/34 16/11/35 14/10/36
f 8/33/37 5/27/38 9/8/39 16/11/40
f 17/18/41 18/32/42 22/12/43 21/25/44
f 18/32/45 17/18/46 19/22/47 20/26/48
f 20/13/49 19/22/50 23/14/51 24/15/52
f 21/16/53 22/30/54 24/28/55 23/19/56
f 1/24/57 2/17/58 19/22/59 17/18/60
f 21/16/61 23/19/62 4/1/63 3/20/64
f 2/17/65 4/21/66 23/14/67 19/22/68
f 3/23/69 1/24/70 17/18/71 21/25/72
s 1
f 18/32/73 20/26/74 6/29/75 5/27/76
f 20/26/74 24/28/77 7/31/78 6/29/75
f 24/28/77 22/30/79 8/33/80 7/31/78
f 22/30/79 18/32/73 5/27/76 8/33/80
